# xmcd
#
# Track frame offsets:
#	150
#	20035
#	39790
#	53857
#	77920
#	97105
#	111650
#	122975
#	140020
#	161695
#	181085
#	203912
#	218435
#	237455
#	251035
#	271865
#	288747
#	304987
#	320812
#	335027
#
# Disc length: 4670 seconds
#
# Revision: 2
# Processed by: cddbd v1.5.2PL0 Copyright (c) Steve Scherf et al.
# Submitted via: EZCDAudioConverter 1.3.4.1
#
DISCID=3c123c14
DTITLE=Marianne Faithfull - A Perfect Stranger 2/2
DYEAR=1998
DGENRE=
TTITLE0=Ballad Of The Soldier's Wife
TTITLE1=Trouble In Mind (The Return)
TTITLE2=Boulevard Of Broken Dreams
TTITLE3=Yesterdays
TTITLE4=Strange Weather
TTITLE5=Gloomy Sunday
TTITLE6=Hello Stranger
TTITLE7=As Tears Go By
TTITLE8=A Perfect Stranger
TTITLE9=Conversation On A Barstool
TTITLE10=A Waste Of Time
TTITLE11=Isolation
TTITLE12=Blazing Away
TTITLE13=When I Find My Life [Live]
TTITLE14=Times Square [Live]
TTITLE15=Ghost Dance
TTITLE16=Sleep
TTITLE17=Love In The Afternoon
TTITLE18=Bored By Dreams
TTITLE19=She
EXTD=
EXTT0=
EXTT1=
EXTT2=
EXTT3=
EXTT4=
EXTT5=
EXTT6=
EXTT7=
EXTT8=
EXTT9=
EXTT10=
EXTT11=
EXTT12=
EXTT13=
EXTT14=
EXTT15=
EXTT16=
EXTT17=
EXTT18=
EXTT19=
PLAYORDER=
